<svg xmlns="http://www.w3.org/2000/svg" x="0" y="0" version="1.1" viewBox="0 0 49.2 49.2">
  <path fill="#93d500" d="M0 0h49.2v49.2H0z"/>
  <path d="M36.3 46.8h-5.4c-.2 0-.4-.2-.4-.4 0-.1 0-.2.1-.3l10.6-9.8c.7-.7 1.1-1.6 1.2-2.7v-4.8c0-1.2-1-2.1-2.1-2.1h-5.1c-.7 0-1.5.3-2 .8L21.4 38.1c-.1.1-.2.1-.3.1h-2.6c-.2 0-.4-.2-.4-.4v-2.6c0-.1 0-.2.1-.3l12.4-11.3c1.1-1 2.5-1.5 4-1.5h5.9c3.6 0 6.5 2.9 6.5 6.5v4.8c0 2.5-1 4.8-2.8 6.5l-7.5 6.9h-.4" class="st1" fill="white"/>
  <path d="M19.8 22.2 12.4 29c-1.8 1.7-2.8 4-2.8 6.5v4.8c0 3.6 2.9 6.5 6.5 6.5H22c1.5 0 2.9-.5 4-1.5L38.3 34c.1-.1.1-.2.1-.3v-2.6c0-.2-.2-.4-.4-.4h-2.7c-.1 0-.2 0-.3.1L23.4 41.4c-.5.5-1.3.8-2 .8h-5.1c-1.2 0-2.1-1-2.1-2.1v-4.8c0-1 .4-2 1.1-2.7l10.6-9.8c.2-.1.2-.4 0-.6-.1-.1-.2-.1-.3-.1h-5.4c-.2-.1-.3 0-.4.1" class="st1" fill="white"/>
</svg>
